<svg width="355" height="52" viewBox="0 0 355 52" fill="none" xmlns="http://www.w3.org/2000/svg">
<path d="M7.6875 15.375C7.6875 16.3333 7.875 17.1979 8.25 17.9688C8.64583 18.7396 9.19792 19.4479 9.90625 20.0938C10.6354 20.7188 11.5104 21.3021 12.5312 21.8438C13.5521 22.3646 14.6979 22.875 15.9688 23.375C18.3646 24.3333 20.5521 25.2812 22.5312 26.2188C24.5104 27.1562 26.1979 28.1875 27.5938 29.3125C29.0104 30.4167 30.1042 31.6667 30.875 33.0625C31.6458 34.4375 32.0312 36.0521 32.0312 37.9062C32.0312 40.0938 31.6146 42.0104 30.7812 43.6562C29.9479 45.3021 28.8125 46.6875 27.375 47.8125C25.9375 48.9167 24.25 49.75 22.3125 50.3125C20.3958 50.875 18.3542 51.1562 16.1875 51.1562C14.6458 51.1562 13.1354 51.0625 11.6562 50.875C10.1771 50.6875 8.75 50.3854 7.375 49.9688C6 49.5521 4.69792 49.0104 3.46875 48.3438C2.23958 47.6771 1.10417 46.8542 0.0625 45.875L1.53125 37.5L6.21875 37.6875C6.21875 39.375 6.33333 40.8021 6.5625 41.9688C6.79167 43.1354 7.11458 44.1146 7.53125 44.9062C8.05208 45.3854 8.64583 45.7917 9.3125 46.125C10 46.4375 10.7188 46.6875 11.4688 46.875C12.2396 47.0625 13.0208 47.1979 13.8125 47.2812C14.625 47.3438 15.4167 47.375 16.1875 47.375C17.4375 47.375 18.6042 47.1875 19.6875 46.8125C20.7708 46.4167 21.7083 45.8854 22.5 45.2188C23.3125 44.5521 23.9479 43.7604 24.4062 42.8438C24.8646 41.9062 25.0938 40.8854 25.0938 39.7812C25.0938 38.4688 24.7917 37.3125 24.1875 36.3125C23.5833 35.2917 22.7292 34.3646 21.625 33.5312C20.5417 32.6979 19.2292 31.9167 17.6875 31.1875C16.1458 30.4583 14.4375 29.7188 12.5625 28.9688C10.8125 28.2812 9.21875 27.5417 7.78125 26.75C6.34375 25.9375 5.11458 25.0312 4.09375 24.0312C3.09375 23.0312 2.3125 21.9062 1.75 20.6562C1.1875 19.4062 0.90625 17.9792 0.90625 16.375C0.90625 14.6667 1.27083 13.0833 2 11.625C2.72917 10.1667 3.82292 8.90625 5.28125 7.84375C6.73958 6.78125 8.54167 5.94792 10.6875 5.34375C12.8333 4.73958 15.3333 4.4375 18.1875 4.4375C19.4792 4.4375 20.75 4.5 22 4.625C23.2708 4.75 24.4375 4.9375 25.5 5.1875C26.5833 5.4375 27.5208 5.76042 28.3125 6.15625C29.1042 6.53125 29.6771 6.97917 30.0312 7.5C30.0104 7.6875 29.9896 7.90625 29.9688 8.15625C29.9479 8.40625 29.9062 8.83333 29.8438 9.4375C29.7812 10.0208 29.6875 10.8542 29.5625 11.9375C29.4375 13 29.2604 14.4479 29.0312 16.2812L24.9375 16C24.9375 14.4792 24.8021 13.2188 24.5312 12.2188C24.2812 11.2188 23.8438 10.4271 23.2188 9.84375C22.5938 9.23958 21.75 8.82292 20.6875 8.59375C19.625 8.34375 18.2812 8.21875 16.6562 8.21875C15.2812 8.21875 14.0417 8.39583 12.9375 8.75C11.8333 9.08333 10.8854 9.5625 10.0938 10.1875C9.32292 10.8125 8.72917 11.5729 8.3125 12.4688C7.89583 13.3438 7.6875 14.3125 7.6875 15.375Z" fill="white"/>
<path d="M71.9375 33.8125C71.9375 36.6042 71.4896 39.0625 70.5938 41.1875C69.7188 43.2917 68.5312 45.0521 67.0312 46.4688C65.5312 47.8854 63.7812 48.9583 61.7812 49.6875C59.7812 50.3958 57.6562 50.75 55.4062 50.75C53.0729 50.75 50.8958 50.375 48.875 49.625C46.875 48.875 45.125 47.7812 43.625 46.3438C42.1458 44.9062 40.9792 43.1354 40.125 41.0312C39.2708 38.9271 38.8438 36.5208 38.8438 33.8125C38.8438 31.125 39.2708 28.7292 40.125 26.625C40.9792 24.5208 42.1458 22.75 43.625 21.3125C45.125 19.8542 46.875 18.7396 48.875 17.9688C50.8958 17.1979 53.0729 16.8125 55.4062 16.8125C57.7188 16.8125 59.8854 17.1979 61.9062 17.9688C63.9271 18.7396 65.6771 19.8542 67.1562 21.3125C68.6354 22.75 69.8021 24.5208 70.6562 26.625C71.5104 28.7292 71.9375 31.125 71.9375 33.8125ZM46 33.7812C46 38.4062 46.75 41.8125 48.25 44C49.7708 46.1875 52.1458 47.2812 55.375 47.2812C57.0625 47.2812 58.5 47 59.6875 46.4375C60.8958 45.875 61.875 45.0312 62.625 43.9062C63.375 42.7812 63.9167 41.375 64.25 39.6875C64.6042 38 64.7812 36.0312 64.7812 33.7812C64.7812 29.3229 64.0208 25.9896 62.5 23.7812C61 21.5521 58.625 20.4375 55.375 20.4375C53.7083 20.4375 52.2812 20.7292 51.0938 21.3125C49.9062 21.875 48.9375 22.7188 48.1875 23.8438C47.4375 24.9688 46.8854 26.3646 46.5312 28.0312C46.1771 29.6979 46 31.6146 46 33.7812Z" fill="white"/>
<path d="M106.812 48.3125C105.438 49.125 103.781 49.7292 101.844 50.125C99.9271 50.5417 97.8958 50.75 95.75 50.75C93.3125 50.75 91.0729 50.3854 89.0312 49.6562C86.9896 48.9271 85.2188 47.8646 83.7188 46.4688C82.2396 45.0521 81.0833 43.3229 80.25 41.2812C79.4375 39.2188 79.0312 36.8646 79.0312 34.2188C79.0312 31.4479 79.4688 28.9792 80.3438 26.8125C81.2188 24.6458 82.4167 22.8333 83.9375 21.375C85.4792 19.8958 87.2917 18.7708 89.375 18C91.4792 17.2292 93.7604 16.8438 96.2188 16.8438C97.2812 16.8438 98.3125 16.9167 99.3125 17.0625C100.333 17.1875 101.292 17.3854 102.188 17.6562C103.104 17.9062 103.948 18.2188 104.719 18.5938C105.49 18.9479 106.156 19.3542 106.719 19.8125L106.188 26.0938H103.938C102.938 24.1354 101.771 22.6979 100.438 21.7812C99.125 20.8646 97.5 20.4062 95.5625 20.4062C94.1458 20.4062 92.8438 20.7083 91.6562 21.3125C90.4688 21.8958 89.4479 22.7188 88.5938 23.7812C87.7396 24.8438 87.0729 26.125 86.5938 27.625C86.1146 29.1042 85.875 30.7292 85.875 32.5C85.875 35.0208 86.1562 37.1875 86.7188 39C87.2812 40.8125 88.0417 42.3021 89 43.4688C89.9792 44.6146 91.1042 45.4688 92.375 46.0312C93.6667 46.5729 95.0417 46.8438 96.5 46.8438C98.4583 46.8438 100.229 46.6354 101.812 46.2188C103.417 45.7812 104.938 45.125 106.375 44.25L106.812 48.3125Z" fill="white"/>
<path d="M115.5 6.03125C115.5 4.69792 115.896 3.63542 116.688 2.84375C117.5 2.05208 118.531 1.65625 119.781 1.65625C120.406 1.65625 120.979 1.76042 121.5 1.96875C122.021 2.17708 122.469 2.46875 122.844 2.84375C123.219 3.21875 123.51 3.67708 123.719 4.21875C123.948 4.76042 124.062 5.36458 124.062 6.03125C124.062 6.65625 123.948 7.23958 123.719 7.78125C123.51 8.30208 123.219 8.76042 122.844 9.15625C122.469 9.53125 122.021 9.82292 121.5 10.0312C120.979 10.2396 120.406 10.3438 119.781 10.3438C119.156 10.3438 118.583 10.2396 118.062 10.0312C117.542 9.82292 117.083 9.53125 116.688 9.15625C116.312 8.76042 116.021 8.30208 115.812 7.78125C115.604 7.23958 115.5 6.65625 115.5 6.03125ZM128.5 49.6562C127.417 49.9271 126.188 50.1146 124.812 50.2188C123.438 50.3438 121.906 50.4062 120.219 50.4062C119.76 50.4062 119.292 50.3646 118.812 50.2812C118.354 50.2188 117.938 50.0938 117.562 49.9062C117.188 49.6979 116.875 49.4271 116.625 49.0938C116.396 48.7396 116.281 48.2812 116.281 47.7188C116.281 46.6979 116.312 45.6875 116.375 44.6875C116.458 43.6875 116.5 42.5312 116.5 41.2188V23.6875C116.5 23.2708 116.479 22.8438 116.438 22.4062C116.417 21.9688 116.365 21.5729 116.281 21.2188C115.531 20.9062 114.635 20.75 113.594 20.75H110.562V17.75C110.812 17.6875 111.198 17.625 111.719 17.5625C112.26 17.4792 112.865 17.4062 113.531 17.3438C114.219 17.2812 114.958 17.2292 115.75 17.1875C116.542 17.1458 117.333 17.125 118.125 17.125C119.125 17.125 120.062 17.1771 120.938 17.2812C121.833 17.3646 122.573 17.5208 123.156 17.75V41.5938C123.156 42.7812 123.208 43.8021 123.312 44.6562C123.417 45.4896 123.542 46.2188 123.688 46.8438H128.188L128.5 49.6562Z" fill="white"/>
<path d="M152.875 43.5938C153 42.4688 153.115 41.1979 153.219 39.7812C153.323 38.3438 153.375 36.6562 153.375 34.7188H148.438C145.458 34.7188 143.177 35.2708 141.594 36.375C140.01 37.4792 139.219 39.1042 139.219 41.25C139.219 43.125 139.74 44.5312 140.781 45.4688C141.823 46.3854 143.219 46.8438 144.969 46.8438C146.281 46.8438 147.615 46.5417 148.969 45.9375C150.323 45.3125 151.625 44.5312 152.875 43.5938ZM165.531 49.4062C164.469 49.7812 163.271 50.0417 161.938 50.1875C160.604 50.3333 159.125 50.4062 157.5 50.4062C156.646 50.4062 155.917 50.3854 155.312 50.3438C154.729 50.3021 154.25 50.1771 153.875 49.9688C153.521 49.7396 153.26 49.3958 153.094 48.9375C152.927 48.4792 152.844 47.8438 152.844 47.0312L152.781 46.4062C152.156 46.9688 151.49 47.5104 150.781 48.0312C150.073 48.5521 149.302 49.0208 148.469 49.4375C147.635 49.8333 146.74 50.1458 145.781 50.375C144.823 50.625 143.781 50.75 142.656 50.75C141.177 50.75 139.812 50.5521 138.562 50.1562C137.312 49.7812 136.24 49.2083 135.344 48.4375C134.448 47.6667 133.75 46.7083 133.25 45.5625C132.75 44.4167 132.5 43.0729 132.5 41.5312C132.5 38.0729 133.844 35.4792 136.531 33.75C139.219 32.0208 143.302 31.1562 148.781 31.1562H153.375V29.0312C153.375 27.4688 153.271 26.1354 153.062 25.0312C152.854 23.9062 152.51 22.9896 152.031 22.2812C151.573 21.5521 150.958 21.0208 150.188 20.6875C149.417 20.3333 148.479 20.1562 147.375 20.1562C146.125 20.1562 145 20.3333 144 20.6875C143.021 21.0417 142.146 21.5104 141.375 22.0938C140.604 22.6562 139.917 23.3125 139.312 24.0625C138.729 24.8125 138.198 25.5938 137.719 26.4062L133.375 23.6562C133.521 22.8021 133.938 21.9688 134.625 21.1562C135.312 20.3438 136.24 19.6146 137.406 18.9688C138.573 18.3229 139.958 17.8125 141.562 17.4375C143.188 17.0417 145 16.8438 147 16.8438C151.458 16.8438 154.74 17.8646 156.844 19.9062C158.948 21.9271 160 24.8542 160 28.6875V41.5938C160 42.7812 160.052 43.8021 160.156 44.6562C160.26 45.4896 160.385 46.2188 160.531 46.8438H165.531V49.4062Z" fill="white"/>
<path d="M175.156 8.15625C175.156 7.61458 175.135 7.07292 175.094 6.53125C175.052 5.98958 174.979 5.46875 174.875 4.96875C174.521 4.84375 174.115 4.73958 173.656 4.65625C173.219 4.57292 172.719 4.53125 172.156 4.53125H169.156V1.8125C170.115 1.60417 171.385 1.41667 172.969 1.25C174.573 1.0625 176.385 0.96875 178.406 0.96875C179.406 0.96875 180.146 1.02083 180.625 1.125C181.104 1.22917 181.479 1.44792 181.75 1.78125V41.5938C181.75 42.7812 181.802 43.8021 181.906 44.6562C182.01 45.4896 182.135 46.2188 182.281 46.8438H187.406V49.6562C186.281 49.9271 185.021 50.1146 183.625 50.2188C182.229 50.3438 180.646 50.4062 178.875 50.4062C178.417 50.4062 177.948 50.3646 177.469 50.2812C177.01 50.2188 176.594 50.0938 176.219 49.9062C175.844 49.6979 175.531 49.4271 175.281 49.0938C175.052 48.7396 174.938 48.2812 174.938 47.7188C174.938 46.6979 174.969 45.6875 175.031 44.6875C175.115 43.6875 175.156 42.5312 175.156 41.2188V8.15625Z" fill="white"/>
<path d="M204.625 9V27.2188C205.417 27.2396 206.271 27.2604 207.188 27.2812C208.104 27.2812 209.125 27.2812 210.25 27.2812C214.042 27.2812 216.823 26.4896 218.594 24.9062C220.365 23.3021 221.25 21.0104 221.25 18.0312C221.25 16.3229 221.031 14.8958 220.594 13.75C220.156 12.5833 219.458 11.6562 218.5 10.9688C217.562 10.2604 216.344 9.76042 214.844 9.46875C213.365 9.15625 211.573 9 209.469 9H204.625ZM197.812 12.6562C197.812 11.1146 197.646 9.97917 197.312 9.25C196.896 9.125 196.438 9.05208 195.938 9.03125C195.458 9.01042 194.958 9 194.438 9H190.688V5.5625C191.375 5.45833 192.188 5.36458 193.125 5.28125C194.062 5.19792 195.062 5.13542 196.125 5.09375C197.188 5.03125 198.292 4.97917 199.438 4.9375C200.604 4.89583 201.74 4.86458 202.844 4.84375C203.969 4.82292 205.052 4.8125 206.094 4.8125C207.135 4.79167 208.073 4.78125 208.906 4.78125C212.052 4.78125 214.833 5 217.25 5.4375C219.667 5.875 221.688 6.60417 223.312 7.625C224.958 8.625 226.198 9.95833 227.031 11.625C227.865 13.2708 228.281 15.3125 228.281 17.75C228.281 19.4167 228.042 20.9062 227.562 22.2188C227.104 23.5104 226.469 24.6562 225.656 25.6562C224.865 26.6562 223.917 27.5 222.812 28.1875C221.729 28.875 220.562 29.4375 219.312 29.875C219.583 31.2292 219.99 32.5729 220.531 33.9062C221.073 35.2188 221.698 36.4792 222.406 37.6875C223.115 38.875 223.875 39.9896 224.688 41.0312C225.521 42.0521 226.344 42.9375 227.156 43.6875C227.99 44.4167 228.781 45 229.531 45.4375C230.302 45.8542 230.99 46.0625 231.594 46.0625H233.344V50.4375H228.625C226.729 50.4375 225.062 50.1042 223.625 49.4375C222.188 48.75 220.927 47.8646 219.844 46.7812C218.781 45.6771 217.875 44.4271 217.125 43.0312C216.396 41.6146 215.771 40.1875 215.25 38.75C214.75 37.3125 214.344 35.9167 214.031 34.5625C213.719 33.2083 213.458 32.0208 213.25 31C211.812 31 210.375 30.9896 208.938 30.9688C207.5 30.9479 206.062 30.9062 204.625 30.8438V41.9062C204.625 42.7812 204.667 43.5312 204.75 44.1562C204.833 44.7604 204.948 45.3021 205.094 45.7812C205.552 45.9062 206.052 45.9896 206.594 46.0312C207.135 46.0521 207.708 46.0625 208.312 46.0625H211.125V50.4375C209.5 50.2292 207.969 50.1042 206.531 50.0625C205.115 50.0208 203.708 50 202.312 50C200.396 50 198.552 50.0208 196.781 50.0625C195.031 50.1042 193.219 50.2292 191.344 50.4375V46.0625H194.125C194.729 46.0625 195.302 46.0521 195.844 46.0312C196.385 46.0104 196.885 45.9271 197.344 45.7812C197.677 44.9271 197.844 43.6667 197.844 42L197.812 12.6562Z" fill="white"/>
<path d="M256.938 43.5938C257.062 42.4688 257.177 41.1979 257.281 39.7812C257.385 38.3438 257.438 36.6562 257.438 34.7188H252.5C249.521 34.7188 247.24 35.2708 245.656 36.375C244.073 37.4792 243.281 39.1042 243.281 41.25C243.281 43.125 243.802 44.5312 244.844 45.4688C245.885 46.3854 247.281 46.8438 249.031 46.8438C250.344 46.8438 251.677 46.5417 253.031 45.9375C254.385 45.3125 255.688 44.5312 256.938 43.5938ZM269.594 49.4062C268.531 49.7812 267.333 50.0417 266 50.1875C264.667 50.3333 263.188 50.4062 261.562 50.4062C260.708 50.4062 259.979 50.3854 259.375 50.3438C258.792 50.3021 258.312 50.1771 257.938 49.9688C257.583 49.7396 257.323 49.3958 257.156 48.9375C256.99 48.4792 256.906 47.8438 256.906 47.0312L256.844 46.4062C256.219 46.9688 255.552 47.5104 254.844 48.0312C254.135 48.5521 253.365 49.0208 252.531 49.4375C251.698 49.8333 250.802 50.1458 249.844 50.375C248.885 50.625 247.844 50.75 246.719 50.75C245.24 50.75 243.875 50.5521 242.625 50.1562C241.375 49.7812 240.302 49.2083 239.406 48.4375C238.51 47.6667 237.812 46.7083 237.312 45.5625C236.812 44.4167 236.562 43.0729 236.562 41.5312C236.562 38.0729 237.906 35.4792 240.594 33.75C243.281 32.0208 247.365 31.1562 252.844 31.1562H257.438V29.0312C257.438 27.4688 257.333 26.1354 257.125 25.0312C256.917 23.9062 256.573 22.9896 256.094 22.2812C255.635 21.5521 255.021 21.0208 254.25 20.6875C253.479 20.3333 252.542 20.1562 251.438 20.1562C250.188 20.1562 249.062 20.3333 248.062 20.6875C247.083 21.0417 246.208 21.5104 245.438 22.0938C244.667 22.6562 243.979 23.3125 243.375 24.0625C242.792 24.8125 242.26 25.5938 241.781 26.4062L237.438 23.6562C237.583 22.8021 238 21.9688 238.688 21.1562C239.375 20.3438 240.302 19.6146 241.469 18.9688C242.635 18.3229 244.021 17.8125 245.625 17.4375C247.25 17.0417 249.062 16.8438 251.062 16.8438C255.521 16.8438 258.802 17.8646 260.906 19.9062C263.01 21.9271 264.062 24.8542 264.062 28.6875V41.5938C264.062 42.7812 264.115 43.8021 264.219 44.6562C264.323 45.4896 264.448 46.2188 264.594 46.8438H269.594V49.4062Z" fill="white"/>
<path d="M308.406 41.5938C308.406 42.7812 308.458 43.8021 308.562 44.6562C308.667 45.4896 308.792 46.2188 308.938 46.8438H313.438L313.781 49.625C311.677 50.1458 308.896 50.4062 305.438 50.4062C305 50.4062 304.552 50.3646 304.094 50.2812C303.635 50.2188 303.219 50.0833 302.844 49.875C302.469 49.6667 302.156 49.3958 301.906 49.0625C301.677 48.7083 301.562 48.25 301.562 47.6875C301.562 46.6667 301.594 45.625 301.656 44.5625C301.719 43.4792 301.75 42.2812 301.75 40.9688V29.6562C301.75 28.0104 301.604 26.625 301.312 25.5C301.042 24.3542 300.656 23.4271 300.156 22.7188C299.677 22.0104 299.104 21.5104 298.438 21.2188C297.792 20.9062 297.094 20.75 296.344 20.75C295.51 20.75 294.635 20.9062 293.719 21.2188C292.823 21.5104 291.948 21.9062 291.094 22.4062C290.24 22.9062 289.438 23.4792 288.688 24.125C287.938 24.75 287.302 25.3958 286.781 26.0625V42.5938C286.781 43.5104 286.802 44.2708 286.844 44.875C286.885 45.4583 287.021 45.9375 287.25 46.3125C287.5 46.6875 287.875 46.9896 288.375 47.2188C288.875 47.4271 289.594 47.6042 290.531 47.75L290.781 50.4062C289.594 50.2812 288.333 50.1771 287 50.0938C285.688 50.0312 284.344 50 282.969 50C281.719 50 280.51 50.0312 279.344 50.0938C278.177 50.1562 277.094 50.2604 276.094 50.4062L276.188 47.75C277.167 47.625 277.917 47.4792 278.438 47.3125C278.979 47.1458 279.365 46.9062 279.594 46.5938C279.844 46.2812 279.99 45.8854 280.031 45.4062C280.073 44.9271 280.094 44.3125 280.094 43.5625V23.5938C280.094 23.1771 280.073 22.7708 280.031 22.375C280.01 21.9583 279.958 21.5729 279.875 21.2188C279.583 21.0521 279.26 20.9375 278.906 20.875C278.573 20.7917 278.167 20.75 277.688 20.75H274.156V17.75C274.406 17.6875 274.792 17.625 275.312 17.5625C275.833 17.4792 276.427 17.4062 277.094 17.3438C277.76 17.2812 278.479 17.2292 279.25 17.1875C280.042 17.1458 280.833 17.125 281.625 17.125C282.625 17.125 283.562 17.1771 284.438 17.2812C285.333 17.3646 286.062 17.5208 286.625 17.75V21.6875C287.417 20.9167 288.281 20.2292 289.219 19.625C290.177 19.0208 291.167 18.5104 292.188 18.0938C293.229 17.6771 294.281 17.3646 295.344 17.1562C296.406 16.9271 297.448 16.8125 298.469 16.8125C299.781 16.8125 301.031 17 302.219 17.375C303.427 17.75 304.49 18.3438 305.406 19.1562C306.323 19.9479 307.052 20.9792 307.594 22.25C308.135 23.5 308.406 25 308.406 26.75V41.5938Z" fill="white"/>
<path d="M318.812 47.75C319.771 47.625 320.51 47.4792 321.031 47.3125C321.552 47.1458 321.938 46.9167 322.188 46.625C322.438 46.3125 322.583 45.9271 322.625 45.4688C322.667 44.9896 322.688 44.4062 322.688 43.7188V8.21875C322.688 7.65625 322.667 7.11458 322.625 6.59375C322.604 6.05208 322.542 5.52083 322.438 5C322.083 4.875 321.688 4.77083 321.25 4.6875C320.812 4.60417 320.312 4.5625 319.75 4.5625H316.719V1.84375C317.302 1.71875 318 1.60417 318.812 1.5C319.646 1.39583 320.552 1.3125 321.531 1.25C322.51 1.16667 323.531 1.09375 324.594 1.03125C325.677 0.96875 326.75 0.916667 327.812 0.875C328.5 1.33333 328.927 1.85417 329.094 2.4375C329.281 3 329.375 3.6875 329.375 4.5V33.6562L337.625 25.6875C340 23.4167 341.198 21.9583 341.219 21.3125C341.219 20.9375 340.823 20.75 340.031 20.75V17.75H353.562V20.75H352.375C351.938 20.75 351.469 20.8125 350.969 20.9375C350.469 21.0625 349.979 21.2188 349.5 21.4062C349.021 21.5938 348.573 21.8125 348.156 22.0625C347.76 22.2917 347.438 22.5208 347.188 22.75L336.469 32.3125L348.031 45.4688C348.26 45.7396 348.573 46 348.969 46.25C349.365 46.4792 349.802 46.6875 350.281 46.875C350.76 47.0625 351.25 47.2083 351.75 47.3125C352.271 47.4167 352.76 47.4688 353.219 47.4688C353.573 47.4688 353.875 47.4375 354.125 47.375L354.531 50.4375C353.26 50.2917 351.99 50.1771 350.719 50.0938C349.469 50.0312 348.188 50 346.875 50C345.562 50 344.26 50.0312 342.969 50.0938C341.698 50.1771 340.375 50.2812 339 50.4062V47.6562C339.479 47.6562 339.854 47.6354 340.125 47.5938C340.396 47.5521 340.531 47.3958 340.531 47.125C340.302 46.7292 340.021 46.3125 339.688 45.875C339.354 45.4375 338.958 44.9479 338.5 44.4062L331.031 35.3125L329.375 36.5V42.9375C329.375 43.7708 329.396 44.4688 329.438 45.0312C329.5 45.5729 329.646 46.0312 329.875 46.4062C330.125 46.7604 330.5 47.0417 331 47.25C331.5 47.4375 332.208 47.6042 333.125 47.75L333.281 50.4062C331.844 50.2812 330.562 50.1771 329.438 50.0938C328.312 50.0312 327.177 50 326.031 50C324.844 50 323.656 50.0312 322.469 50.0938C321.302 50.1562 320.052 50.2604 318.719 50.4062L318.812 47.75Z" fill="white"/>
</svg>
